# xmcd
#
# Track frame offsets: 
#        150
#        11065
#        29527
#        44615
#        60397
#        73491
#        86581
#        99099
#        109025
#        120675
#        133730
#        144089
#        154857
#        167980
#        181578
#        192303
#        203463
#        212913
#
# Disc length: 2977 seconds
#
# Revision: 0
# Processed by: cddbd v1.5.2PL0 Copyright (c) Steve Scherf et al.
# Submitted via: ExactAudioCopy v1.0b1
#
DISCID=fb0b9f12
DTITLE=Albert Collins - The Complete Imperial Recordings CD2
DYEAR=1992
DGENRE=Texas Blues
TTITLE0=Baby What You Want Me To Do Rock Me Baby
TTITLE1=Lip Service
TTITLE2=Things That I Used To Do (Talking Slim Blues)
TTITLE3=Back-Yard Back-Talk
TTITLE4=Tounge Lashing
TTITLE5=And Then It Started Raining
TTITLE6=Soul Food
TTITLE7=Jam It Up
TTITLE8=Do What You Want To Do
TTITLE9=Black Bottom Bayou
TTITLE10=Junkey Monkey
TTITLE11=69 Underpass Roadside Inn
TTITLE12=I Need You So
TTITLE13=Bitsey
TTITLE14=Cool 'N Collards
TTITLE15=Blend Down And Jam
TTITLE16=Sweet 'N Sour
TTITLE17=Swamp Sauce
EXTD=
EXTT0=
EXTT1=
EXTT2=
EXTT3=
EXTT4=
EXTT5=
EXTT6=
EXTT7=
EXTT8=
EXTT9=
EXTT10=
EXTT11=
EXTT12=
EXTT13=
EXTT14=
EXTT15=
EXTT16=
EXTT17=
PLAYORDER=
